<svg width="264" height="73" viewBox="0 0 264 73" fill="none" xmlns="http://www.w3.org/2000/svg">
<path d="M52.0226 24.51C52.2426 23.85 52.8826 23.43 53.9426 23.25C55.0026 23.07 56.6026 22.98 58.7426 22.98C60.9026 22.98 62.5526 23.16 63.6926 23.52C64.8326 23.86 65.4026 24.35 65.4026 24.99C65.4026 25.29 65.2826 25.51 65.0426 25.65C64.8226 25.77 64.6226 25.87 64.4426 25.95C64.2826 26.01 64.0526 26.07 63.7526 26.13C63.4726 26.19 63.2126 26.25 62.9726 26.31C62.7326 26.35 62.4126 26.39 62.0126 26.43C61.6326 26.47 61.3026 26.51 61.0226 26.55C60.7426 26.57 60.3726 26.61 59.9126 26.67C59.4526 26.71 59.0326 26.75 58.6526 26.79C58.2726 26.83 57.2726 26.98 55.6526 27.24V27.27C55.6526 27.99 55.3426 29.9 54.7226 33C54.9826 33.02 55.4526 33.03 56.1326 33.03C56.8326 33.03 57.7426 32.98 58.8626 32.88C59.9826 32.76 60.7126 32.7 61.0526 32.7C61.4126 32.7 61.7126 32.79 61.9526 32.97C62.1926 33.15 62.3126 33.35 62.3126 33.57C62.3126 34.11 61.9926 34.59 61.3526 35.01C60.7126 35.43 59.9126 35.76 58.9526 36C57.0326 36.48 55.3426 36.74 53.8826 36.78C53.2826 39.32 52.9126 40.88 52.7726 41.46C52.6526 42.02 52.5226 42.56 52.3826 43.08C52.1226 44.1 51.8826 44.61 51.6626 44.61C51.2426 44.61 50.6726 44.14 49.9526 43.2C49.2326 42.26 48.8726 41.56 48.8726 41.1C48.8726 40.3 49.3626 37.76 50.3426 33.48C51.3426 29.2 51.8726 26.51 51.9326 25.41V25.17C51.9326 24.91 51.9626 24.69 52.0226 24.51ZM70.3823 41.58C71.4623 41.1 72.4023 40.13 73.2023 38.67C74.0023 37.21 74.4023 35.84 74.4023 34.56C74.4023 33.28 74.2223 32.4 73.8623 31.92C73.0023 32.42 72.1423 33.47 71.2823 35.07C70.4423 36.67 70.0223 38.08 70.0223 39.3C70.0223 40.5 70.1423 41.26 70.3823 41.58ZM66.0023 39.6C66.0023 37.1 66.7723 34.73 68.3123 32.49C69.8723 30.25 71.4123 29.13 72.9323 29.13C74.4523 29.13 75.7323 29.67 76.7723 30.75C77.8123 31.81 78.3323 33.1 78.3323 34.62C78.3323 36.12 77.9723 37.65 77.2523 39.21C76.5323 40.77 75.5223 42.07 74.2223 43.11C72.9223 44.13 71.5323 44.64 70.0523 44.64C68.9523 44.64 68.0023 44.15 67.2023 43.17C66.4023 42.19 66.0023 41 66.0023 39.6ZM92.374 29.16C93.414 29.16 94.324 29.63 95.104 30.57C95.904 31.49 96.304 32.48 96.304 33.54C96.304 35.24 96.024 37.02 95.464 38.88C94.924 40.72 94.324 42.14 93.664 43.14C93.024 44.14 92.364 44.64 91.684 44.64C91.024 44.64 90.694 44.17 90.694 43.23C90.694 42.51 91.024 41.06 91.684 38.88C92.184 37.08 92.434 35.79 92.434 35.01C92.434 34.23 92.334 33.84 92.134 33.84C91.874 33.84 91.614 33.97 91.354 34.23C91.114 34.49 90.914 34.72 90.754 34.92C90.594 35.12 90.404 35.38 90.184 35.7C89.984 36 89.804 36.28 89.644 36.54C89.504 36.78 89.314 37.1 89.074 37.5C88.854 37.88 88.674 38.2 88.534 38.46C88.394 38.7 88.214 39.02 87.994 39.42C86.134 42.9 84.674 44.64 83.614 44.64C83.194 44.64 82.664 44.28 82.024 43.56C81.384 42.82 81.064 42.28 81.064 41.94C81.064 41.72 81.204 41.25 81.484 40.53C81.784 39.79 81.994 39.23 82.114 38.85C82.254 38.45 82.364 38.03 82.444 37.59C82.544 37.15 82.624 36.68 82.684 36.18C82.744 35.66 82.784 35.26 82.804 34.98C82.844 34.7 82.884 34.26 82.924 33.66C83.104 31.06 83.254 29.62 83.374 29.34C83.514 29.06 83.664 28.92 83.824 28.92C84.584 28.92 85.314 29.24 86.014 29.88C86.714 30.5 87.064 31.07 87.064 31.59C87.064 32.83 86.744 34.61 86.104 36.93C87.404 34.65 88.584 32.79 89.644 31.35C90.724 29.89 91.634 29.16 92.374 29.16ZM103.075 24.51C103.295 23.85 103.935 23.43 104.995 23.25C106.055 23.07 107.655 22.98 109.795 22.98C111.955 22.98 113.605 23.16 114.745 23.52C115.885 23.86 116.455 24.35 116.455 24.99C116.455 25.29 116.335 25.51 116.095 25.65C115.875 25.77 115.675 25.87 115.495 25.95C115.335 26.01 115.105 26.07 114.805 26.13C114.525 26.19 114.265 26.25 114.025 26.31C113.785 26.35 113.465 26.39 113.065 26.43C112.685 26.47 112.355 26.51 112.075 26.55C111.795 26.57 111.425 26.61 110.965 26.67C110.505 26.71 110.085 26.75 109.705 26.79C109.325 26.83 108.325 26.98 106.705 27.24V27.27C106.705 27.99 106.395 29.9 105.775 33C106.035 33.02 106.505 33.03 107.185 33.03C107.885 33.03 108.795 32.98 109.915 32.88C111.035 32.76 111.765 32.7 112.105 32.7C112.465 32.7 112.765 32.79 113.005 32.97C113.245 33.15 113.365 33.35 113.365 33.57C113.365 34.11 113.045 34.59 112.405 35.01C111.765 35.43 110.965 35.76 110.005 36C108.085 36.48 106.395 36.74 104.935 36.78C104.335 39.32 103.965 40.88 103.825 41.46C103.705 42.02 103.575 42.56 103.435 43.08C103.175 44.1 102.935 44.61 102.715 44.61C102.295 44.61 101.725 44.14 101.005 43.2C100.285 42.26 99.9253 41.56 99.9253 41.1C99.9253 40.3 100.415 37.76 101.395 33.48C102.395 29.2 102.925 26.51 102.985 25.41V25.17C102.985 24.91 103.015 24.69 103.075 24.51ZM121.435 41.58C122.515 41.1 123.455 40.13 124.255 38.67C125.055 37.21 125.455 35.84 125.455 34.56C125.455 33.28 125.275 32.4 124.915 31.92C124.055 32.42 123.195 33.47 122.335 35.07C121.495 36.67 121.075 38.08 121.075 39.3C121.075 40.5 121.195 41.26 121.435 41.58ZM117.055 39.6C117.055 37.1 117.825 34.73 119.365 32.49C120.925 30.25 122.465 29.13 123.985 29.13C125.505 29.13 126.785 29.67 127.825 30.75C128.865 31.81 129.385 33.1 129.385 34.62C129.385 36.12 129.025 37.65 128.305 39.21C127.585 40.77 126.575 42.07 125.275 43.11C123.975 44.13 122.585 44.64 121.105 44.64C120.005 44.64 119.055 44.15 118.255 43.17C117.455 42.19 117.055 41 117.055 39.6ZM143.427 29.16C144.467 29.16 145.377 29.63 146.157 30.57C146.957 31.49 147.357 32.48 147.357 33.54C147.357 35.24 147.077 37.02 146.517 38.88C145.977 40.72 145.377 42.14 144.717 43.14C144.077 44.14 143.417 44.64 142.737 44.64C142.077 44.64 141.747 44.17 141.747 43.23C141.747 42.51 142.077 41.06 142.737 38.88C143.237 37.08 143.487 35.79 143.487 35.01C143.487 34.23 143.387 33.84 143.187 33.84C142.927 33.84 142.667 33.97 142.407 34.23C142.167 34.49 141.967 34.72 141.807 34.92C141.647 35.12 141.457 35.38 141.237 35.7C141.037 36 140.857 36.28 140.697 36.54C140.557 36.78 140.367 37.1 140.127 37.5C139.907 37.88 139.727 38.2 139.587 38.46C139.447 38.7 139.267 39.02 139.047 39.42C137.187 42.9 135.727 44.64 134.667 44.64C134.247 44.64 133.717 44.28 133.077 43.56C132.437 42.82 132.117 42.28 132.117 41.94C132.117 41.72 132.257 41.25 132.537 40.53C132.837 39.79 133.047 39.23 133.167 38.85C133.307 38.45 133.417 38.03 133.497 37.59C133.597 37.15 133.677 36.68 133.737 36.18C133.797 35.66 133.837 35.26 133.857 34.98C133.897 34.7 133.937 34.26 133.977 33.66C134.157 31.06 134.307 29.62 134.427 29.34C134.567 29.06 134.717 28.92 134.877 28.92C135.637 28.92 136.367 29.24 137.067 29.88C137.767 30.5 138.117 31.07 138.117 31.59C138.117 32.83 137.797 34.61 137.157 36.93C138.457 34.65 139.637 32.79 140.697 31.35C141.777 29.89 142.687 29.16 143.427 29.16ZM153.048 22.59C154.608 22.59 156.308 22.91 158.148 23.55C160.008 24.19 161.728 25.03 163.308 26.07C164.908 27.11 166.238 28.36 167.298 29.82C168.378 31.28 168.918 32.76 168.918 34.26C168.918 35.38 168.008 36.78 166.188 38.46C164.388 40.12 162.298 41.56 159.918 42.78C157.538 44 155.588 44.61 154.068 44.61C153.728 44.61 153.178 44.17 152.418 43.29C151.678 42.39 151.308 41.73 151.308 41.31C151.308 40.49 151.848 38.21 152.928 34.47C154.028 30.71 154.708 28.13 154.968 26.73C154.248 26.25 153.648 25.68 153.168 25.02C152.688 24.34 152.448 23.77 152.448 23.31C152.448 22.83 152.648 22.59 153.048 22.59ZM164.598 33.42C164.598 32.78 164.008 31.94 162.828 30.9C161.648 29.84 160.278 28.96 158.718 28.26C158.598 29.76 157.748 32.97 156.168 37.89C156.088 38.15 155.958 38.58 155.778 39.18C155.618 39.76 155.498 40.15 155.418 40.35C157.378 39.69 159.398 38.58 161.478 37.02C163.558 35.44 164.598 34.24 164.598 33.42ZM176.209 41.58C177.289 41.1 178.229 40.13 179.029 38.67C179.829 37.21 180.229 35.84 180.229 34.56C180.229 33.28 180.049 32.4 179.689 31.92C178.829 32.42 177.969 33.47 177.109 35.07C176.269 36.67 175.849 38.08 175.849 39.3C175.849 40.5 175.969 41.26 176.209 41.58ZM171.829 39.6C171.829 37.1 172.599 34.73 174.139 32.49C175.699 30.25 177.239 29.13 178.759 29.13C180.279 29.13 181.559 29.67 182.599 30.75C183.639 31.81 184.159 33.1 184.159 34.62C184.159 36.12 183.799 37.65 183.079 39.21C182.359 40.77 181.349 42.07 180.049 43.11C178.749 44.13 177.359 44.64 175.879 44.64C174.779 44.64 173.829 44.15 173.029 43.17C172.229 42.19 171.829 41 171.829 39.6ZM199.01 35.64C199.31 35.98 199.46 36.39 199.46 36.87C199.46 37.35 199.26 37.94 198.86 38.64C198.36 39.84 197.92 41.33 197.54 43.11C197.16 44.89 196.78 46.31 196.4 47.37C196.04 48.45 195.64 49.37 195.2 50.13C194.78 50.89 194.2 51.52 193.46 52.02C192.72 52.52 191.87 52.77 190.91 52.77C189.57 52.77 188.37 52.33 187.31 51.45C186.25 50.57 185.72 49.81 185.72 49.17C185.72 48.55 185.89 47.98 186.23 47.46C186.57 46.96 186.88 46.71 187.16 46.71C187.46 46.71 187.74 46.87 188 47.19C188.28 47.51 188.53 47.85 188.75 48.21C188.99 48.59 189.3 48.94 189.68 49.26C190.06 49.58 190.48 49.74 190.94 49.74C191.4 49.74 191.82 49.44 192.2 48.84C192.58 48.24 192.87 47.59 193.07 46.89C193.57 45.25 193.88 44.08 194 43.38C192.64 44.22 191.53 44.64 190.67 44.64C189.83 44.64 189.01 44.18 188.21 43.26C187.41 42.32 187.01 41.44 187.01 40.62C187.01 39.78 187.23 38.74 187.67 37.5C188.13 36.24 188.71 34.99 189.41 33.75C190.13 32.49 191.03 31.41 192.11 30.51C193.21 29.61 194.31 29.16 195.41 29.16C196.15 29.16 196.78 29.35 197.3 29.73C197.82 30.09 198.2 30.58 198.44 31.2C198.86 32.28 199.07 33.5 199.07 34.86C199.07 35.06 199.05 35.32 199.01 35.64ZM190.7 40.47C190.7 40.73 190.81 40.86 191.03 40.86C191.61 40.86 192.55 40.33 193.85 39.27C195.15 38.21 196.02 37.16 196.46 36.12V35.55C196.46 34.25 196.34 33.46 196.1 33.18C195.98 33.04 195.82 32.97 195.62 32.97C194.66 32.97 193.6 33.98 192.44 36C191.28 38.02 190.7 39.51 190.7 40.47ZM212.674 29.19C213.434 29.19 214.184 29.64 214.924 30.54C215.664 31.44 216.034 32.25 216.034 32.97C216.034 33.45 215.824 33.69 215.404 33.69C215.164 33.69 214.814 33.6 214.354 33.42C213.894 33.22 213.424 33.12 212.944 33.12C212.484 33.12 211.794 33.28 210.874 33.6C209.974 33.92 209.524 34.34 209.524 34.86C209.524 35.06 209.794 35.35 210.334 35.73C210.874 36.11 211.464 36.5 212.104 36.9C212.744 37.3 213.334 37.86 213.874 38.58C214.414 39.28 214.684 40.05 214.684 40.89C214.684 41.71 214.074 42.54 212.854 43.38C211.654 44.22 210.234 44.64 208.594 44.64C206.974 44.64 205.584 44.27 204.424 43.53C203.264 42.79 202.684 42.03 202.684 41.25C202.684 40.47 203.004 40.08 203.644 40.08C203.904 40.08 204.214 40.18 204.574 40.38C205.574 40.96 206.814 41.25 208.294 41.25C209.794 41.25 210.544 41.05 210.544 40.65C210.544 40.25 210.254 39.81 209.674 39.33C209.114 38.83 208.494 38.37 207.814 37.95C207.154 37.53 206.534 37.02 205.954 36.42C205.394 35.8 205.114 35.2 205.114 34.62C205.114 33.54 206.094 32.37 208.054 31.11C210.014 29.83 211.554 29.19 212.674 29.19Z" fill="#F70000" fill-opacity="0.71"/>
<path d="M207.76 2.32889C200.943 1.20122 193.248 2.62082 192.438 7.51874L191.251 14.6938C190.441 19.5917 197.262 23.4567 204.079 24.5844C210.896 25.712 218.591 24.2924 219.401 19.3945L220.595 12.1765C221.398 7.32156 214.577 3.45656 207.76 2.32889ZM197.539 20.6776C194.107 18.9623 192.168 16.6993 192.459 14.9378L193.113 10.985C194.176 12.8383 196.326 14.3857 198.932 15.5671C198.204 16.2854 197.686 17.3915 197.495 18.5515C197.374 19.2819 197.408 19.9939 197.539 20.6776ZM196.079 11.8289C198.767 10.8609 202.458 10.633 206.282 11.2655C210.106 11.8979 213.527 13.3026 215.76 15.0844C213.272 15.9528 209.684 16.2863 205.564 15.6048C201.437 14.9663 198.148 13.4953 196.079 11.8289ZM218.186 19.1935C217.731 21.9432 211.958 24.078 204.37 22.8228C202.74 22.5532 201.279 22.1791 199.929 21.6909C199.009 21.3622 198.489 20.0845 198.71 18.7526C198.838 17.9792 199.159 17.3261 199.659 16.8792C200.13 16.4273 200.706 16.2578 201.225 16.432C202.523 16.8674 203.902 17.1838 205.266 17.4093C210.393 18.2575 216.037 17.6461 218.847 15.1978L218.186 19.1935ZM217.405 14.3414C215.103 12.0624 211.108 10.2541 206.573 9.50392C202.039 8.75377 197.675 9.17953 194.761 10.5955C193.918 9.61742 193.504 8.62201 193.653 7.71976C194.108 4.97005 199.881 2.83528 207.469 4.09042C215.057 5.34557 219.828 9.26875 219.38 11.9755C219.231 12.8778 218.519 13.6868 217.405 14.3414Z" fill="#D24A4A" fill-opacity="0.79"/>
<path d="M200.533 20.246C200.943 20.3137 201.354 19.8877 201.452 19.2945C201.55 18.7013 201.298 18.1655 200.889 18.0978C200.479 18.0301 200.068 18.4561 199.97 19.0493C199.872 19.6425 200.124 20.1783 200.533 20.246Z" fill="#D24A4A" fill-opacity="0.79"/>
<path d="M202.839 20.8482C203.248 20.9159 203.66 20.4899 203.758 19.8966C203.856 19.3034 203.604 18.7677 203.195 18.7C202.785 18.6323 202.374 19.0583 202.276 19.6515C202.178 20.2447 202.43 20.7805 202.839 20.8482Z" fill="#D24A4A" fill-opacity="0.79"/>
<path d="M205.196 21.3263C205.605 21.394 206.017 20.968 206.115 20.3748C206.213 19.7816 205.961 19.2458 205.552 19.1781C205.142 19.1104 204.731 19.5364 204.633 20.1296C204.535 20.7229 204.787 21.2586 205.196 21.3263Z" fill="#D24A4A" fill-opacity="0.79"/>
<path d="M207.552 21.6277C207.961 21.6954 208.373 21.2694 208.471 20.6762C208.569 20.083 208.317 19.5472 207.907 19.4795C207.498 19.4118 207.087 19.8378 206.989 20.431C206.891 21.0243 207.143 21.56 207.552 21.6277Z" fill="#D24A4A" fill-opacity="0.79"/>
<path d="M21.4862 50.5544C20.4048 52.0987 21.1225 54.4789 23.0836 55.8522C24.8126 57.063 26.8864 57.1222 28.1183 56.077L38.5434 63.3776C37.9824 64.8927 38.7471 66.8212 40.4761 68.032C42.4372 69.4054 44.9193 69.266 46.0008 67.7217C46.4703 67.0511 46.6276 66.2225 46.4272 65.3553C47.3248 65.2268 48.0356 64.816 48.5052 64.1455C49.5866 62.6012 48.8689 60.221 46.9078 58.8476C45.1788 57.6369 43.105 57.5777 41.8731 58.6229L31.4738 51.3403C32.0348 49.8253 31.2701 47.8967 29.5411 46.686C27.58 45.3126 25.0979 45.452 24.0164 46.9963C23.5469 47.6668 23.3896 48.4955 23.59 49.3626C22.6665 49.4731 21.9558 49.8839 21.4862 50.5544ZM25.2823 49.9118C24.968 49.2072 25.0141 48.4823 25.3841 47.954C26.0529 46.999 27.5742 46.9136 28.787 47.7629C29.974 48.5942 30.4423 50.0123 29.7993 50.9854C29.5859 51.2902 29.739 51.7306 30.1261 52.0016L41.7125 60.1154C42.0995 60.3865 42.5541 60.3414 42.7791 60.075C43.4595 59.1584 44.9408 59.0752 46.1536 59.9246C47.3664 60.7739 47.8063 62.2327 47.1375 63.1877C46.7675 63.716 46.1021 64.0072 45.3326 63.9528C45.0808 63.9279 44.8895 64.0362 44.7757 64.1988C44.6619 64.3613 44.6513 64.5962 44.7349 64.8062C45.0492 65.5108 45.0031 66.2356 44.6331 66.7639C43.9643 67.7189 42.443 67.8044 41.2302 66.9551C40.0432 66.1238 39.5749 64.7056 40.2178 63.7325C40.4313 63.4277 40.2782 62.9874 39.8911 62.7163L28.2531 54.5664C27.8661 54.2953 27.4115 54.3404 27.1864 54.6068C26.5061 55.5234 25.0248 55.6066 23.812 54.7572C22.5992 53.9079 22.1593 52.4491 22.8281 51.4941C23.198 50.9658 23.8634 50.6746 24.633 50.729C24.8848 50.7539 25.076 50.6456 25.1899 50.483C25.3553 50.3566 25.3659 50.1218 25.2823 49.9118Z" fill="#FF7979" fill-opacity="0.63"/>
<path d="M32.0359 61.5764C31.6489 61.3054 31.1684 61.3323 30.955 61.6371L29.9447 63.0798C29.7313 63.3846 29.8702 63.8453 30.2573 64.1163C30.6443 64.3874 31.1247 64.3604 31.3382 64.0556L32.3485 62.613C32.5619 62.3082 32.423 61.8475 32.0359 61.5764Z" fill="#FF7979" fill-opacity="0.63"/>
<path d="M29.8201 59.3584C29.7454 59.2454 29.6822 59.1709 29.579 59.0986C29.3209 58.9179 28.9775 58.8591 28.7462 58.9697L27.0614 59.728C26.7216 59.8838 26.6487 60.3173 26.8846 60.6945C27.1347 61.0513 27.6329 61.2185 27.9985 61.0809L29.6834 60.3225C30.0232 60.1668 30.096 59.7333 29.8201 59.3584Z" fill="#FF7979" fill-opacity="0.63"/>
<path d="M35.596 63.7969C35.6093 63.5034 35.4482 63.2392 35.1902 63.0584C35.0869 62.9862 34.9695 62.9342 34.8636 62.9206C34.4428 62.8076 34.0603 63.0243 34.0159 63.4172L33.8794 65.2598C33.8492 65.6323 34.1767 66.0434 34.6233 66.1745C35.0442 66.2875 35.4267 66.0708 35.4711 65.6779L35.596 63.7969Z" fill="#FF7979" fill-opacity="0.63"/>
<path d="M37.9554 53.1235C38.3424 53.3946 38.8229 53.3676 39.0363 53.0628L40.0466 51.6202C40.26 51.3154 40.1211 50.8547 39.7341 50.5836C39.347 50.3126 38.8666 50.3395 38.6531 50.6443L37.6428 52.087C37.4294 52.3918 37.5683 52.8525 37.9554 53.1235Z" fill="#FF7979" fill-opacity="0.63"/>
<path d="M40.1712 55.3416C40.4213 55.6984 40.9196 55.8656 41.2852 55.728L42.97 54.9697C43.3098 54.8139 43.3827 54.3804 43.1468 54.0033C43.072 53.8903 43.0089 53.8158 42.9056 53.7435C42.6476 53.5628 42.3042 53.504 42.0729 53.6146L40.3881 54.3729C39.9682 54.5331 39.8953 54.9667 40.1712 55.3416Z" fill="#FF7979" fill-opacity="0.63"/>
<path d="M34.3952 50.903C34.3651 51.2755 34.6926 51.6866 35.1392 51.8177C35.5601 51.9307 35.9426 51.714 35.9869 51.3211L36.1235 49.4785C36.1368 49.185 35.9757 48.9207 35.7176 48.74C35.6144 48.6677 35.4969 48.6158 35.3911 48.6022C34.9702 48.4892 34.5877 48.7059 34.5433 49.0988L34.3952 50.903Z" fill="#FF7979" fill-opacity="0.63"/>
</svg>
