<svg width="24" height="24" viewBox="0 0 24 24" fill="none" xmlns="http://www.w3.org/2000/svg">
<g clip-path="url(#clip0_25_500)">
<path d="M14.9055 5.89381C14.9384 5.85682 15.0919 5.73597 15.695 5.73597L17.6721 5.73524C18.3154 5.73524 18.8384 5.21302 18.8384 4.57105V1.12207C18.8384 0.481202 18.3161 -0.0410156 17.674 -0.0421143L14.7371 -0.046875C12.9245 -0.046875 11.3836 0.549867 10.2809 1.67908C9.18328 2.80317 8.60298 4.37238 8.60298 6.21681V8.07698H6.35628C5.71306 8.07698 5.18982 8.5992 5.18982 9.24117V12.9557C5.18982 13.5976 5.71306 14.1198 6.35628 14.1198H8.60298V22.789C8.60298 23.431 9.12622 23.9532 9.76944 23.9532H13.6203C14.2636 23.9532 14.7868 23.431 14.7868 22.789V14.12H17.5331C18.1763 14.12 18.6994 13.5976 18.6994 12.956L18.7008 9.24135C18.7008 8.81966 18.4709 8.42946 18.1007 8.2231C17.9292 8.12752 17.7296 8.07698 17.5237 8.07698H14.7868V6.60737C14.7868 6.12837 14.8514 5.95497 14.9055 5.89381Z" fill="#5B5B5B"/>
</g>
<defs>
<clipPath id="clip0_25_500">
<rect width="24" height="24" fill="white"/>
</clipPath>
</defs>
</svg>
