<svg width="22" height="31" viewBox="0 0 22 31" fill="none" xmlns="http://www.w3.org/2000/svg">
<g clip-path="url(#clip0_25_493)">
<path d="M18.3333 0H3.66667C2.69421 0 1.76158 0.435475 1.07394 1.21063C0.386308 1.98578 0 3.03711 0 4.13333L0 20.6667C0 21.7629 0.386308 22.8142 1.07394 23.5894C1.76158 24.3645 2.69421 24.8 3.66667 24.8H18.3333C19.3058 24.8 20.2384 24.3645 20.9261 23.5894C21.6137 22.8142 22 21.7629 22 20.6667V4.13333C22 3.03711 21.6137 1.98578 20.9261 1.21063C20.2384 0.435475 19.3058 0 18.3333 0V0ZM20.1667 20.6667C20.1667 21.2148 19.9735 21.7404 19.6297 22.128C19.2859 22.5156 18.8196 22.7333 18.3333 22.7333H3.66667C3.18044 22.7333 2.71412 22.5156 2.3703 22.128C2.02649 21.7404 1.83333 21.2148 1.83333 20.6667V4.13333C1.83333 3.58522 2.02649 3.05955 2.3703 2.67198C2.71412 2.2844 3.18044 2.06667 3.66667 2.06667H18.3333C18.8196 2.06667 19.2859 2.2844 19.6297 2.67198C19.9735 3.05955 20.1667 3.58522 20.1667 4.13333V20.6667Z" fill="#5B5B5B"/>
<path d="M11 6.19995C9.91221 6.19995 8.84884 6.56357 7.94437 7.24484C7.0399 7.9261 6.33495 8.89441 5.91867 10.0273C5.50238 11.1602 5.39346 12.4068 5.60568 13.6095C5.8179 14.8122 6.34173 15.9169 7.11092 16.784C7.8801 17.6511 8.86011 18.2416 9.92701 18.4808C10.9939 18.72 12.0998 18.5973 13.1048 18.128C14.1098 17.6587 14.9687 16.8641 15.5731 15.8445C16.1774 14.8249 16.5 13.6262 16.5 12.4C16.5 10.7556 15.9205 9.17861 14.8891 8.01589C13.8576 6.85316 12.4587 6.19995 11 6.19995ZM11 16.5333C10.2748 16.5333 9.56589 16.2909 8.96291 15.8367C8.35993 15.3825 7.88997 14.737 7.61244 13.9817C7.33492 13.2264 7.26231 12.3954 7.40379 11.5936C7.54527 10.7918 7.89448 10.0553 8.40728 9.47724C8.92007 8.89919 9.57341 8.50552 10.2847 8.34604C10.9959 8.18655 11.7332 8.26841 12.4032 8.58125C13.0732 8.89409 13.6458 9.42387 14.0487 10.1036C14.4516 10.7833 14.6667 11.5825 14.6667 12.4C14.6667 13.4962 14.2804 14.5475 13.5927 15.3227C12.9051 16.0978 11.9725 16.5333 11 16.5333Z" fill="#5B5B5B"/>
<path d="M16.9583 7.2333C17.7177 7.2333 18.3333 6.53934 18.3333 5.6833C18.3333 4.82726 17.7177 4.1333 16.9583 4.1333C16.199 4.1333 15.5833 4.82726 15.5833 5.6833C15.5833 6.53934 16.199 7.2333 16.9583 7.2333Z" fill="#5B5B5B"/>
</g>
<defs>
<clipPath id="clip0_25_493">
<rect width="22" height="31" fill="white"/>
</clipPath>
</defs>
</svg>
