<svg width="130" height="154" viewBox="0 0 130 154" fill="none" xmlns="http://www.w3.org/2000/svg">
<path d="M1.17584 125.75C-2.42859 122.922 -5.30184 125.553 -10.4619 125.819C-17.9516 126.339 -19.4266 130.77 -16.9055 133.967C-14.4762 137.03 -10.0716 135.904 -6.85519 138.409C-3.63876 140.915 -3.09127 146.106 0.320057 147.677C3.73139 149.247 6.96261 146.162 4.91556 138.047C3.45901 132.503 4.66781 128.658 1.17584 125.75Z" fill="#62005F" fill-opacity="0.6"/>
<path d="M11.4511 130.033C7.79241 131.029 5.71578 134.093 6.71489 136.773C7.71399 139.453 11.4627 140.785 15.0295 139.654C18.6881 138.658 20.7648 135.594 19.7657 132.914C18.8584 130.368 15.1097 129.037 11.4511 130.033Z" fill="#62005F" fill-opacity="0.6"/>
<path d="M6.01694 115.747C4.49138 119.617 1.25074 121.712 -1.23092 120.281C-3.71258 118.849 -4.54681 114.458 -3.02125 110.589C-1.49568 106.719 1.74496 104.624 4.22662 106.055C6.59582 107.566 7.45066 111.743 6.01694 115.747Z" fill="#62005F" fill-opacity="0.6"/>
<path d="M7.86492 117.228C5.17537 120.129 4.46702 124.217 6.54948 126.529C8.5401 128.706 12.3618 128.192 15.1638 125.213C17.8534 122.312 18.5617 118.224 16.4793 115.912C14.4887 113.735 10.5545 114.328 7.86492 117.228Z" fill="#62005F" fill-opacity="0.6"/>
<path d="M57.269 112.439C53.0714 110.603 50.9482 113.87 46.0189 115.418C38.8975 117.796 38.5785 122.456 41.8194 124.92C44.9377 127.277 48.9205 125.085 52.6616 126.705C56.4026 128.326 58.2319 133.216 61.9277 133.882C65.6234 134.549 67.9799 130.754 63.9671 123.409C61.1694 118.405 61.3776 114.381 57.269 112.439Z" fill="#62005F" fill-opacity="0.6"/>
<path d="M48.0583 104.945C49.4194 108.877 48.5432 112.684 46.0727 113.087C43.6021 113.491 40.4166 110.709 39.022 106.565C37.6609 102.633 38.5371 98.8256 41.0077 98.4223C43.4782 98.0191 46.5747 100.906 48.0583 104.945Z" fill="#62005F" fill-opacity="0.6"/>
<path d="M68.2891 114.014C64.9961 115.894 63.7524 119.38 65.3904 121.725C67.0284 124.07 70.991 124.421 74.1615 122.434C77.4545 120.554 78.6982 117.068 77.0602 114.723C75.5447 112.485 71.5821 112.134 68.2891 114.014Z" fill="#62005F" fill-opacity="0.6"/>
<path d="M59.4528 101.543C58.9441 105.671 56.3309 108.51 53.57 107.746C50.8091 106.981 48.9025 102.939 49.4112 98.8102C49.9198 94.6819 52.5331 91.8427 55.294 92.6075C57.9659 93.4774 59.8389 97.3077 59.4528 101.543Z" fill="#62005F" fill-opacity="0.6"/>
<path d="M61.6127 102.515C59.7345 105.996 60.0718 110.131 62.6665 111.848C65.1387 113.458 68.7103 112.004 70.6774 108.418C72.5556 104.937 72.2183 100.802 69.6236 99.0847C67.1514 97.4746 63.4909 99.0335 61.6127 102.515Z" fill="#62005F" fill-opacity="0.6"/>
<path d="M40.2122 43.6585C36.4025 41.1134 33.7384 43.9567 28.6137 44.6151C21.1854 45.705 20.0529 50.2362 22.8105 53.2313C25.4663 56.0996 29.7722 54.6413 33.1704 56.8938C36.5686 59.1464 37.5106 64.2812 41.0317 65.5866C44.5529 66.892 47.5394 63.57 44.8792 55.6345C43.0039 50.2173 43.9159 46.2916 40.2122 43.6585Z" fill="#62005F" fill-opacity="0.6"/>
<path d="M32.4611 34.6631C33.1104 38.773 31.579 42.3672 29.076 42.3302C26.573 42.2932 23.9257 38.9953 23.2807 34.6706C22.6315 30.5607 24.1629 26.9665 26.6659 27.0035C29.1688 27.0405 31.7101 30.4263 32.4611 34.6631Z" fill="#62005F" fill-opacity="0.6"/>
<path d="M50.7843 47.145C47.2123 48.4172 45.3755 51.631 46.5761 54.2271C47.7768 56.8232 51.6161 57.8647 55.0863 56.4656C58.6583 55.1934 60.4951 51.9797 59.2945 49.3836C58.1956 46.9144 54.3563 45.8728 50.7843 47.145Z" fill="#62005F" fill-opacity="0.6"/>
<path d="M44.2761 33.3156C43.0502 37.2903 39.9788 39.6263 37.3952 38.3885C34.8116 37.1507 33.6448 32.8362 34.8707 28.8614C36.0966 24.8867 39.168 22.5506 41.7516 23.7885C44.2292 25.1143 45.4002 29.214 44.2761 33.3156Z" fill="#62005F" fill-opacity="0.6"/>
<path d="M46.2318 34.6516C43.7714 37.7486 43.377 41.8789 45.6298 44.025C47.7807 46.0443 51.5521 45.2406 54.1186 42.0556C56.5791 38.9585 56.9735 34.8283 54.7207 32.6821C52.5698 30.6629 48.6923 31.5545 46.2318 34.6516Z" fill="#62005F" fill-opacity="0.6"/>
<path d="M103.396 28.7322C99.8116 25.878 96.9195 28.4892 91.7577 28.7176C84.2644 29.1838 82.7577 33.6047 85.2557 36.8195C87.6629 39.8994 92.0755 38.8055 95.2739 41.3337C98.4722 43.862 98.9824 49.0575 102.382 50.6522C105.782 52.2469 109.036 49.1857 107.047 41.0558C105.63 35.501 106.867 31.6652 103.396 28.7322Z" fill="#62005F" fill-opacity="0.6"/>
<path d="M96.4222 19.1211C96.7262 23.2708 94.9002 26.7247 92.4091 26.479C89.9179 26.2333 87.555 22.726 87.2732 18.3625C86.9692 14.2128 88.7951 10.7589 91.2863 11.0046C93.7774 11.2503 96.0273 14.8365 96.4222 19.1211Z" fill="#62005F" fill-opacity="0.6"/>
<path d="M113.64 33.0888C109.974 34.0585 107.876 37.1077 108.855 39.795C109.835 42.4822 113.574 43.8405 117.149 42.7359C120.815 41.7662 122.913 38.717 121.934 36.0298C121.045 33.4774 117.306 32.1191 113.64 33.0888Z" fill="#62005F" fill-opacity="0.6"/>
<path d="M108.308 18.7645C106.755 22.6231 103.499 24.6946 101.028 23.2455C98.5568 21.7964 97.7541 17.3996 99.3074 13.541C100.861 9.68241 104.116 7.61085 106.588 9.05997C108.946 10.5879 109.771 14.771 108.308 18.7645Z" fill="#62005F" fill-opacity="0.6"/>
<path d="M110.146 20.259C107.435 23.14 106.698 27.2229 108.764 29.5496C110.738 31.7413 114.564 31.2551 117.387 28.2954C120.097 25.4144 120.835 21.3315 118.769 19.0049C116.794 16.8131 112.856 17.3781 110.146 20.259Z" fill="#62005F" fill-opacity="0.6"/>
</svg>
