<svg width="72" height="32" viewBox="0 0 72 32" fill="none" xmlns="http://www.w3.org/2000/svg">
<path d="M14.724 3.70793C15.0563 2.68519 16.5032 2.68519 16.8355 3.70793L19.0198 10.4304C19.1684 10.8878 19.5946 11.1974 20.0756 11.1974L27.144 11.1974C28.2194 11.1974 28.6665 12.5735 27.7965 13.2056L22.078 17.3603C21.6889 17.643 21.5261 18.1441 21.6747 18.6015L23.859 25.3239C24.1913 26.3467 23.0207 27.1971 22.1507 26.565L16.4323 22.4103C16.0432 22.1277 15.5164 22.1277 15.1273 22.4103L9.40882 26.565C8.53882 27.1971 7.36824 26.3467 7.70055 25.3239L9.88481 18.6015C10.0334 18.1441 9.87062 17.643 9.48154 17.3603L3.76308 13.2056C2.89308 12.5735 3.3402 11.1974 4.41558 11.1974L11.484 11.1974C11.9649 11.1974 12.3911 10.8878 12.5398 10.4304L14.724 3.70793Z" fill="#5D5DFF"/>
<path d="M42.067 24.833C41.2603 24.833 40.5017 24.6665 39.7913 24.3335C39.0882 24.0005 38.4813 23.5379 37.9707 22.9459C37.46 22.3538 37.0937 21.6655 36.8717 20.8811L39.7802 20.104C39.8764 20.4814 40.0466 20.8071 40.2908 21.0809C40.5424 21.3547 40.831 21.5693 41.1567 21.7248C41.4897 21.8728 41.8301 21.9468 42.178 21.9468C42.6368 21.9468 43.0549 21.8358 43.4324 21.6137C43.8172 21.3917 44.1206 21.092 44.3427 20.7146C44.5721 20.3371 44.6868 19.919 44.6868 19.4602C44.6868 19.0013 44.5721 18.5832 44.3427 18.2057C44.1206 17.8283 43.8172 17.5286 43.4324 17.3066C43.0549 17.0845 42.6368 16.9735 42.178 16.9735C41.6155 16.9735 41.1567 17.0697 40.8014 17.2622C40.4462 17.4472 40.1798 17.6248 40.0022 17.795L37.4489 17.0179L37.9374 8.51459H46.6628V11.3342H39.6025L40.6682 10.3351L40.3352 15.819L39.8246 15.1974C40.2242 14.8717 40.6793 14.6349 41.19 14.4869C41.7006 14.3389 42.178 14.2649 42.622 14.2649C43.6285 14.2649 44.5129 14.4906 45.2751 14.9421C46.0448 15.3861 46.6443 16.0003 47.0735 16.7848C47.5101 17.5619 47.7285 18.4537 47.7285 19.4602C47.7285 20.4666 47.4657 21.3769 46.9403 22.191C46.4148 22.9977 45.7229 23.6415 44.8644 24.1226C44.0059 24.5962 43.0734 24.833 42.067 24.833ZM50.8782 24.5V21.4805H53.8977V24.5H50.8782ZM63.4292 24.833C62.2451 24.833 61.209 24.5851 60.321 24.0893C59.4329 23.5934 58.7409 22.9015 58.2451 22.0134C57.7492 21.1253 57.5013 20.0892 57.5013 18.9051V14.1095C57.5013 12.9254 57.7492 11.8893 58.2451 11.0012C58.7409 10.1131 59.4329 9.42117 60.321 8.92532C61.209 8.42948 62.2451 8.18156 63.4292 8.18156C64.6133 8.18156 65.6494 8.42948 66.5375 8.92532C67.4256 9.42117 68.1175 10.1131 68.6134 11.0012C69.1092 11.8893 69.3572 12.9254 69.3572 14.1095V18.9051C69.3572 20.0892 69.1092 21.1253 68.6134 22.0134C68.1175 22.9015 67.4256 23.5934 66.5375 24.0893C65.6494 24.5851 64.6133 24.833 63.4292 24.833ZM63.4292 21.969C63.9621 21.969 64.4431 21.8432 64.8724 21.5915C65.3016 21.3399 65.642 20.9995 65.8937 20.5703C66.1453 20.141 66.2711 19.66 66.2711 19.1271V13.8653C66.2711 13.3324 66.1453 12.8514 65.8937 12.4221C65.642 11.9929 65.3016 11.6525 64.8724 11.4008C64.4431 11.1492 63.9621 11.0234 63.4292 11.0234C62.8964 11.0234 62.4153 11.1492 61.9861 11.4008C61.5569 11.6525 61.2164 11.9929 60.9648 12.4221C60.7132 12.8514 60.5874 13.3324 60.5874 13.8653V19.1271C60.5874 19.66 60.7132 20.141 60.9648 20.5703C61.2164 20.9995 61.5569 21.3399 61.9861 21.5915C62.4153 21.8432 62.8964 21.969 63.4292 21.969Z" fill="#1E1E1E"/>
</svg>
