<svg width="82" height="32" viewBox="0 0 82 32" fill="none" xmlns="http://www.w3.org/2000/svg">
<path d="M14.724 3.70793C15.0563 2.68519 16.5032 2.68519 16.8355 3.70793L19.0198 10.4304C19.1684 10.8878 19.5946 11.1974 20.0756 11.1974L27.144 11.1974C28.2194 11.1974 28.6665 12.5735 27.7965 13.2056L22.078 17.3603C21.6889 17.643 21.5261 18.1441 21.6747 18.6015L23.859 25.3239C24.1913 26.3467 23.0207 27.1971 22.1507 26.565L16.4323 22.4103C16.0432 22.1277 15.5164 22.1277 15.1273 22.4103L9.40882 26.565C8.53882 27.1971 7.36824 26.3467 7.70055 25.3239L9.88481 18.6015C10.0334 18.1441 9.87062 17.643 9.48154 17.3603L3.76308 13.2056C2.89308 12.5735 3.3402 11.1974 4.41558 11.1974L11.484 11.1974C11.9649 11.1974 12.3911 10.8878 12.5398 10.4304L14.724 3.70793Z" fill="#5D5DFF"/>
<path d="M43.8209 24.5V22.0134H36.8717V19.1937L41.9115 8.51459H45.375L40.3352 19.1937H43.8209V15.1974H46.8848V19.1937H48.3057V22.0134H46.8848V24.5H43.8209ZM51.03 24.5V21.4805H54.0494V24.5H51.03ZM58.4524 24.5L63.8252 11.3564H56.987V8.51459H67.0667V11.3564L61.716 24.5H58.4524ZM74.481 24.833C73.6743 24.833 72.9157 24.6665 72.2053 24.3335C71.5022 24.0005 70.8953 23.5379 70.3847 22.9459C69.874 22.3538 69.5077 21.6655 69.2857 20.8811L72.1941 20.104C72.2904 20.4814 72.4606 20.8071 72.7048 21.0809C72.9564 21.3547 73.245 21.5693 73.5707 21.7248C73.9037 21.8728 74.2441 21.9468 74.592 21.9468C75.0508 21.9468 75.4689 21.8358 75.8464 21.6137C76.2312 21.3917 76.5346 21.092 76.7567 20.7146C76.9861 20.3371 77.1008 19.919 77.1008 19.4602C77.1008 19.0013 76.9861 18.5832 76.7567 18.2057C76.5346 17.8283 76.2312 17.5286 75.8464 17.3066C75.4689 17.0845 75.0508 16.9735 74.592 16.9735C74.0295 16.9735 73.5707 17.0697 73.2154 17.2622C72.8602 17.4472 72.5938 17.6248 72.4162 17.795L69.8629 17.0179L70.3514 8.51459H79.0768V11.3342H72.0165L73.0822 10.3351L72.7492 15.819L72.2386 15.1974C72.6382 14.8717 73.0933 14.6349 73.604 14.4869C74.1146 14.3389 74.592 14.2649 75.036 14.2649C76.0425 14.2649 76.9269 14.4906 77.6891 14.9421C78.4588 15.3861 79.0583 16.0003 79.4875 16.7848C79.9241 17.5619 80.1425 18.4537 80.1425 19.4602C80.1425 20.4666 79.8797 21.3769 79.3543 22.191C78.8288 22.9977 78.1369 23.6415 77.2784 24.1226C76.4199 24.5962 75.4874 24.833 74.481 24.833Z" fill="#1E1E1E"/>
</svg>
