<svg width="70" height="33" viewBox="0 0 70 33" fill="none" xmlns="http://www.w3.org/2000/svg">
<path d="M14.7241 4.20793C15.0564 3.18519 16.5034 3.18519 16.8357 4.20793L19.0199 10.9304C19.1685 11.3878 19.5948 11.6974 20.0757 11.6974L27.1441 11.6974C28.2195 11.6974 28.6666 13.0735 27.7966 13.7056L22.0781 17.8603C21.6891 18.143 21.5263 18.6441 21.6749 19.1015L23.8591 25.8239C24.1914 26.8467 23.0209 27.6971 22.1509 27.065L16.4324 22.9103C16.0433 22.6277 15.5165 22.6277 15.1274 22.9103L9.40894 27.065C8.53894 27.6971 7.36837 26.8467 7.70068 25.8239L9.88493 19.1015C10.0335 18.6441 9.87074 18.143 9.48167 17.8603L3.7632 13.7056C2.89321 13.0735 3.34033 11.6974 4.4157 11.6974L11.4841 11.6974C11.965 11.6974 12.3913 11.3878 12.5399 10.9304L14.7241 4.20793Z" fill="#5D5DFF"/>
<path d="M43.821 25V22.5134H36.8718V19.6937L41.9117 9.01459H45.3752L40.3353 19.6937H43.821V15.6974H46.8849V19.6937H48.3058V22.5134H46.8849V25H43.821ZM51.0301 25V21.9805H54.0495V25H51.0301ZM62.4044 25.333C61.5978 25.333 60.8392 25.1665 60.1287 24.8335C59.4257 24.5005 58.8188 24.0379 58.3082 23.4459C57.7975 22.8538 57.4312 22.1655 57.2092 21.3811L60.1176 20.604C60.2138 20.9814 60.384 21.3071 60.6283 21.5809C60.8799 21.8547 61.1685 22.0693 61.4941 22.2248C61.8272 22.3728 62.1676 22.4468 62.5154 22.4468C62.9743 22.4468 63.3924 22.3358 63.7698 22.1137C64.1547 21.8917 64.4581 21.592 64.6801 21.2146C64.9095 20.8371 65.0243 20.419 65.0243 19.9602C65.0243 19.5013 64.9095 19.0832 64.6801 18.7057C64.4581 18.3283 64.1547 18.0286 63.7698 17.8066C63.3924 17.5845 62.9743 17.4735 62.5154 17.4735C61.953 17.4735 61.4941 17.5697 61.1389 17.7622C60.7837 17.9472 60.5173 18.1248 60.3396 18.295L57.7864 17.5179L58.2749 9.01459H67.0002V11.8342H59.94L61.0057 10.8351L60.6727 16.319L60.162 15.6974C60.5617 15.3717 61.0168 15.1349 61.5274 14.9869C62.0381 14.8389 62.5154 14.7649 62.9595 14.7649C63.966 14.7649 64.8503 14.9906 65.6126 15.4421C66.3823 15.8861 66.9817 16.5003 67.411 17.2848C67.8476 18.0619 68.0659 18.9537 68.0659 19.9602C68.0659 20.9666 67.8032 21.8769 67.2778 22.691C66.7523 23.4977 66.0603 24.1415 65.2019 24.6226C64.3434 25.0962 63.4109 25.333 62.4044 25.333Z" fill="#1E1E1E"/>
</svg>
