<svg width="84" height="32" viewBox="0 0 84 32" fill="none" xmlns="http://www.w3.org/2000/svg">
<path d="M14.7241 3.70793C15.0564 2.68519 16.5034 2.68519 16.8357 3.70793L19.0199 10.4304C19.1685 10.8878 19.5948 11.1974 20.0757 11.1974L27.1441 11.1974C28.2195 11.1974 28.6666 12.5735 27.7966 13.2056L22.0781 17.3603C21.6891 17.643 21.5263 18.1441 21.6749 18.6015L23.8591 25.3239C24.1914 26.3467 23.0209 27.1971 22.1509 26.565L16.4324 22.4103C16.0433 22.1277 15.5165 22.1277 15.1274 22.4103L9.40894 26.565C8.53894 27.1971 7.36837 26.3467 7.70068 25.3239L9.88493 18.6015C10.0335 18.1441 9.87074 17.643 9.48167 17.3603L3.7632 13.2056C2.89321 12.5735 3.34033 11.1974 4.4157 11.1974L11.4841 11.1974C11.965 11.1974 12.3913 10.8878 12.5399 10.4304L14.7241 3.70793Z" fill="#5D5DFF"/>
<path d="M43.821 24.5V22.0134H36.8718V19.1937L41.9117 8.51459H45.3752L40.3353 19.1937H43.821V15.1974H46.8849V19.1937H48.3058V22.0134H46.8849V24.5H43.821ZM51.0301 24.5V21.4805H54.0495V24.5H51.0301ZM62.7819 8.20376C63.8401 8.20376 64.7874 8.45168 65.6237 8.94752C66.4674 9.44337 67.1334 10.1353 67.6219 11.0234C68.1103 11.9041 68.3545 12.9254 68.3545 14.0873V18.7275C68.3545 19.9856 68.1103 21.0735 67.6219 21.9912C67.1334 22.9015 66.4452 23.6045 65.5571 24.1004C64.669 24.5888 63.6255 24.833 62.4266 24.833C61.6496 24.833 60.9095 24.7183 60.2064 24.4889C59.5108 24.2521 58.8669 23.8635 58.2749 23.3233L60.4284 21.1697C60.6949 21.4361 61.002 21.6433 61.3498 21.7914C61.7051 21.9394 62.064 22.0134 62.4266 22.0134C63.0039 22.0134 63.5034 21.8802 63.9253 21.6137C64.3545 21.3399 64.6838 20.9884 64.9132 20.5592C65.1501 20.1225 65.2685 19.66 65.2685 19.1715V16.7959L65.7791 17.351C65.3277 17.8172 64.7985 18.1761 64.1917 18.4278C63.5848 18.672 62.9595 18.7941 62.3156 18.7941C61.3091 18.7941 60.421 18.5684 59.6514 18.1169C58.8891 17.6655 58.2897 17.0475 57.853 16.2631C57.4238 15.4786 57.2092 14.5831 57.2092 13.5766C57.2092 12.5701 57.4645 11.6636 57.9751 10.8569C58.4858 10.0428 59.1629 9.39896 60.0066 8.92532C60.8503 8.44428 61.7754 8.20376 62.7819 8.20376ZM62.7819 11.09C62.323 11.09 61.9012 11.201 61.5163 11.423C61.1389 11.6451 60.8355 11.9448 60.6061 12.3222C60.384 12.6997 60.273 13.1178 60.273 13.5766C60.273 14.0355 60.384 14.4573 60.6061 14.8421C60.8281 15.2196 61.1278 15.523 61.5052 15.7524C61.8827 15.9744 62.3008 16.0855 62.7597 16.0855C63.2185 16.0855 63.6366 15.9744 64.0141 15.7524C64.3989 15.523 64.7023 15.2196 64.9243 14.8421C65.1538 14.4573 65.2685 14.0355 65.2685 13.5766C65.2685 13.1326 65.1575 12.7219 64.9354 12.3444C64.7134 11.967 64.4137 11.6636 64.0363 11.4341C63.6588 11.2047 63.2407 11.09 62.7819 11.09ZM76.2156 24.833C75.4089 24.833 74.6504 24.6665 73.9399 24.3335C73.2368 24.0005 72.63 23.5379 72.1193 22.9459C71.6087 22.3538 71.2424 21.6655 71.0203 20.8811L73.9288 20.104C74.025 20.4814 74.1952 20.8071 74.4394 21.0809C74.6911 21.3547 74.9797 21.5693 75.3053 21.7248C75.6384 21.8728 75.9788 21.9468 76.3266 21.9468C76.7855 21.9468 77.2036 21.8358 77.581 21.6137C77.9659 21.3917 78.2693 21.092 78.4913 20.7146C78.7207 20.3371 78.8354 19.919 78.8354 19.4602C78.8354 19.0013 78.7207 18.5832 78.4913 18.2057C78.2693 17.8283 77.9659 17.5286 77.581 17.3066C77.2036 17.0845 76.7855 16.9735 76.3266 16.9735C75.7642 16.9735 75.3053 17.0697 74.9501 17.2622C74.5949 17.4472 74.3284 17.6248 74.1508 17.795L71.5976 17.0179L72.086 8.51459H80.8114V11.3342H73.7512L74.8169 10.3351L74.4839 15.819L73.9732 15.1974C74.3728 14.8717 74.828 14.6349 75.3386 14.4869C75.8493 14.3389 76.3266 14.2649 76.7707 14.2649C77.7771 14.2649 78.6615 14.4906 79.4238 14.9421C80.1935 15.3861 80.7929 16.0003 81.2221 16.7848C81.6588 17.5619 81.8771 18.4537 81.8771 19.4602C81.8771 20.4666 81.6144 21.3769 81.0889 22.191C80.5635 22.9977 79.8715 23.6415 79.0131 24.1226C78.1546 24.5962 77.2221 24.833 76.2156 24.833Z" fill="#1E1E1E"/>
</svg>
